<svg width="323" height="130" viewBox="0 0 323 130" fill="none" xmlns="http://www.w3.org/2000/svg">
<path fill-rule="evenodd" clip-rule="evenodd" d="M208.731 108.25H70.0849C64.1947 108.25 59.4198 103.459 59.4198 97.55C59.4198 91.6406 64.1947 86.85 70.0849 86.85H10.6651C4.77493 86.85 0 82.0594 0 76.15C0 70.2406 4.77493 65.45 10.6651 65.45H71.6085C77.4987 65.45 82.2736 60.6595 82.2736 54.75C82.2736 48.8406 77.4987 44.05 71.6085 44.05H33.5189C27.6287 44.05 22.8538 39.2594 22.8538 33.35C22.8538 27.4406 27.6287 22.65 33.5189 22.65H94.4623C88.5721 22.65 83.7972 17.8594 83.7972 11.95C83.7972 6.04055 88.5721 1.25 94.4623 1.25L181.307 1.25C187.197 1.25 191.972 6.04055 191.972 11.95C191.972 17.8594 187.197 22.65 181.307 22.65H278.816C284.706 22.65 289.481 27.4406 289.481 33.35C289.481 39.2594 284.706 44.05 278.816 44.05H312.335C318.225 44.05 323 48.8406 323 54.75C323 60.6595 318.225 65.45 312.335 65.45H283.387C277.497 65.45 272.722 70.2406 272.722 76.15C272.722 82.0594 277.497 86.85 283.387 86.85H292.528C298.418 86.85 303.193 91.6406 303.193 97.55C303.193 103.459 298.418 108.25 292.528 108.25H213.302C212.517 108.25 211.753 108.165 211.017 108.004C210.28 108.165 209.516 108.25 208.731 108.25Z" fill="#C7E3F7"/>
<g filter="url(#filter0_d_1046_4997)">
<path d="M84.8065 84.202H41.0305V68.97L82.1185 12.65H104.646V67.562H115.655V84.202H104.646V102.25H84.8065V84.202ZM86.0865 67.562V34.282L62.2785 67.562H86.0865ZM127.21 57.45C127.21 50.7087 127.807 44.522 129.002 38.89C130.196 33.258 132.159 28.4367 134.89 24.426C137.62 20.4153 141.247 17.3007 145.77 15.082C150.292 12.8633 155.882 11.754 162.538 11.754C169.108 11.754 174.655 12.8633 179.178 15.082C183.7 17.3007 187.327 20.4153 190.058 24.426C192.788 28.4367 194.751 33.258 195.946 38.89C197.14 44.522 197.738 50.7087 197.738 57.45C197.738 64.2767 197.14 70.506 195.946 76.138C194.751 81.77 192.788 86.5913 190.058 90.602C187.327 94.6127 183.7 97.7273 179.178 99.946C174.655 102.079 169.108 103.146 162.538 103.146C155.882 103.146 150.292 102.079 145.77 99.946C141.247 97.7273 137.62 94.6127 134.89 90.602C132.159 86.5913 130.196 81.77 129.002 76.138C127.807 70.506 127.21 64.2767 127.21 57.45ZM177.642 57.45C177.642 53.6953 177.471 50.1113 177.13 46.698C176.874 43.1993 176.234 40.1273 175.21 37.482C174.271 34.7513 172.778 32.618 170.73 31.082C168.767 29.4607 166.036 28.65 162.538 28.65C159.039 28.65 156.266 29.4607 154.218 31.082C152.17 32.618 150.634 34.7513 149.61 37.482C148.671 40.1273 148.031 43.1993 147.69 46.698C147.434 50.1113 147.306 53.6953 147.306 57.45C147.306 61.4607 147.434 65.2153 147.69 68.714C148.031 72.1273 148.671 75.1567 149.61 77.802C150.634 80.362 152.17 82.41 154.218 83.946C156.266 85.482 159.039 86.25 162.538 86.25C166.036 86.25 168.767 85.482 170.73 83.946C172.778 82.41 174.271 80.362 175.21 77.802C176.234 75.1567 176.874 72.1273 177.13 68.714C177.471 65.2153 177.642 61.4607 177.642 57.45ZM251.807 84.202H208.031V68.97L249.119 12.65H271.646V67.562H282.655V84.202H271.646V102.25H251.807V84.202ZM253.087 67.562V34.282L229.279 67.562H253.087Z" fill="url(#paint0_linear_1046_4997)"/>
</g>
<path d="M303 1.25V7.25" stroke="#0054A5" stroke-width="2.5" stroke-linecap="round" stroke-linejoin="round"/>
<path d="M303 15.25V21.25" stroke="#0054A5" stroke-width="2.5" stroke-linecap="round" stroke-linejoin="round"/>
<path d="M293 11.25H299" stroke="#0054A5" stroke-width="2.5" stroke-linecap="round" stroke-linejoin="round"/>
<path d="M307 11.25H313" stroke="#0054A5" stroke-width="2.5" stroke-linecap="round" stroke-linejoin="round"/>
<path d="M16 108.25V114.25" stroke="#0054A5" stroke-width="2.5" stroke-linecap="round" stroke-linejoin="round"/>
<path d="M16 122.25V128.25" stroke="#0054A5" stroke-width="2.5" stroke-linecap="round" stroke-linejoin="round"/>
<path d="M6 118.25H12" stroke="#0054A5" stroke-width="2.5" stroke-linecap="round" stroke-linejoin="round"/>
<path d="M20 118.25H26" stroke="#0054A5" stroke-width="2.5" stroke-linecap="round" stroke-linejoin="round"/>
<defs>
<filter id="filter0_d_1046_4997" x="37.0312" y="11.754" width="249.623" height="99.392" filterUnits="userSpaceOnUse" color-interpolation-filters="sRGB">
<feFlood flood-opacity="0" result="BackgroundImageFix"/>
<feColorMatrix in="SourceAlpha" type="matrix" values="0 0 0 0 0 0 0 0 0 0 0 0 0 0 0 0 0 0 127 0" result="hardAlpha"/>
<feOffset dy="4"/>
<feGaussianBlur stdDeviation="2"/>
<feComposite in2="hardAlpha" operator="out"/>
<feColorMatrix type="matrix" values="0 0 0 0 0.148336 0 0 0 0 0.418841 0 0 0 0 0.807692 0 0 0 0.15 0"/>
<feBlend mode="normal" in2="BackgroundImageFix" result="effect1_dropShadow_1046_4997"/>
<feBlend mode="normal" in="SourceGraphic" in2="effect1_dropShadow_1046_4997" result="shape"/>
</filter>
<linearGradient id="paint0_linear_1046_4997" x1="163.768" y1="29.25" x2="169.789" y2="112.887" gradientUnits="userSpaceOnUse">
<stop stop-color="#2474C0"/>
<stop offset="1" stop-color="#033B8F"/>
</linearGradient>
</defs>
</svg>
