<svg width="323" height="130" viewBox="0 0 323 130" fill="none" xmlns="http://www.w3.org/2000/svg">
<path fill-rule="evenodd" clip-rule="evenodd" d="M208.731 108.25H70.0849C64.1947 108.25 59.4198 103.459 59.4198 97.55C59.4198 91.6406 64.1947 86.85 70.0849 86.85H10.6651C4.77493 86.85 0 82.0594 0 76.15C0 70.2406 4.77493 65.45 10.6651 65.45H71.6085C77.4987 65.45 82.2736 60.6595 82.2736 54.75C82.2736 48.8406 77.4987 44.05 71.6085 44.05H33.5189C27.6287 44.05 22.8538 39.2594 22.8538 33.35C22.8538 27.4406 27.6287 22.65 33.5189 22.65H94.4623C88.5721 22.65 83.7972 17.8594 83.7972 11.95C83.7972 6.04055 88.5721 1.25 94.4623 1.25L181.307 1.25C187.197 1.25 191.972 6.04055 191.972 11.95C191.972 17.8594 187.197 22.65 181.307 22.65H278.816C284.706 22.65 289.481 27.4406 289.481 33.35C289.481 39.2594 284.706 44.05 278.816 44.05H312.335C318.225 44.05 323 48.8406 323 54.75C323 60.6595 318.225 65.45 312.335 65.45H283.387C277.497 65.45 272.722 70.2406 272.722 76.15C272.722 82.0594 277.497 86.85 283.387 86.85H292.528C298.418 86.85 303.193 91.6406 303.193 97.55C303.193 103.459 298.418 108.25 292.528 108.25H213.302C212.517 108.25 211.753 108.165 211.017 108.004C210.28 108.165 209.516 108.25 208.731 108.25Z" fill="#C7E3F7"/>
<g filter="url(#filter0_d_1046_4998)">
<path d="M106.62 12.65V29.162H67.5795V48.106C69.2862 46.1433 71.4195 44.6073 73.9795 43.498C76.5395 42.3033 79.7395 41.706 83.5795 41.706C88.7848 41.706 93.1795 42.602 96.7635 44.394C100.433 46.1007 103.42 48.4047 105.724 51.306C108.113 54.2073 109.862 57.4073 110.972 60.906C112.081 64.4047 112.636 67.8607 112.636 71.274C112.636 77.7593 111.313 83.3913 108.668 88.17C106.022 92.9487 102.268 96.6607 97.4035 99.306C92.5395 101.866 86.7368 103.146 79.9955 103.146C73.1688 103.146 67.3235 101.994 62.4595 99.69C57.5955 97.3007 53.7982 94.1007 51.0675 90.09C48.4222 85.994 46.8862 81.3433 46.4595 76.138H65.9155C66.5128 78.8687 67.9208 81.258 70.1395 83.306C72.4435 85.2687 75.6008 86.25 79.6115 86.25C82.5982 86.25 85.0302 85.6527 86.9075 84.458C88.7848 83.2633 90.1928 81.5567 91.1315 79.338C92.0702 77.1193 92.5395 74.474 92.5395 71.402C92.5395 66.8793 91.3875 63.466 89.0835 61.162C86.8648 58.858 83.6222 57.706 79.3555 57.706C76.1128 57.706 73.4248 58.602 71.2915 60.394C69.1582 62.1007 67.7502 64.1487 67.0675 66.538H47.7395V12.65H106.62ZM124.835 57.45C124.835 50.7087 125.432 44.522 126.627 38.89C127.821 33.258 129.784 28.4367 132.515 24.426C135.245 20.4153 138.872 17.3007 143.395 15.082C147.917 12.8633 153.507 11.754 160.163 11.754C166.733 11.754 172.28 12.8633 176.803 15.082C181.325 17.3007 184.952 20.4153 187.683 24.426C190.413 28.4367 192.376 33.258 193.571 38.89C194.765 44.522 195.363 50.7087 195.363 57.45C195.363 64.2767 194.765 70.506 193.571 76.138C192.376 81.77 190.413 86.5913 187.683 90.602C184.952 94.6127 181.325 97.7273 176.803 99.946C172.28 102.079 166.733 103.146 160.163 103.146C153.507 103.146 147.917 102.079 143.395 99.946C138.872 97.7273 135.245 94.6127 132.515 90.602C129.784 86.5913 127.821 81.77 126.627 76.138C125.432 70.506 124.835 64.2767 124.835 57.45ZM175.267 57.45C175.267 53.6953 175.096 50.1113 174.755 46.698C174.499 43.1993 173.859 40.1273 172.835 37.482C171.896 34.7513 170.403 32.618 168.355 31.082C166.392 29.4607 163.661 28.65 160.163 28.65C156.664 28.65 153.891 29.4607 151.843 31.082C149.795 32.618 148.259 34.7513 147.235 37.482C146.296 40.1273 145.656 43.1993 145.315 46.698C145.059 50.1113 144.931 53.6953 144.931 57.45C144.931 61.4607 145.059 65.2153 145.315 68.714C145.656 72.1273 146.296 75.1567 147.235 77.802C148.259 80.362 149.795 82.41 151.843 83.946C153.891 85.482 156.664 86.25 160.163 86.25C163.661 86.25 166.392 85.482 168.355 83.946C170.403 82.41 171.896 80.362 172.835 77.802C173.859 75.1567 174.499 72.1273 174.755 68.714C175.096 65.2153 175.267 61.4607 175.267 57.45ZM207.96 57.45C207.96 50.7087 208.557 44.522 209.752 38.89C210.946 33.258 212.909 28.4367 215.64 24.426C218.37 20.4153 221.997 17.3007 226.52 15.082C231.042 12.8633 236.632 11.754 243.288 11.754C249.858 11.754 255.405 12.8633 259.928 15.082C264.45 17.3007 268.077 20.4153 270.808 24.426C273.538 28.4367 275.501 33.258 276.696 38.89C277.89 44.522 278.488 50.7087 278.488 57.45C278.488 64.2767 277.89 70.506 276.696 76.138C275.501 81.77 273.538 86.5913 270.808 90.602C268.077 94.6127 264.45 97.7273 259.928 99.946C255.405 102.079 249.858 103.146 243.288 103.146C236.632 103.146 231.042 102.079 226.52 99.946C221.997 97.7273 218.37 94.6127 215.64 90.602C212.909 86.5913 210.946 81.77 209.752 76.138C208.557 70.506 207.96 64.2767 207.96 57.45ZM258.392 57.45C258.392 53.6953 258.221 50.1113 257.88 46.698C257.624 43.1993 256.984 40.1273 255.96 37.482C255.021 34.7513 253.528 32.618 251.48 31.082C249.517 29.4607 246.786 28.65 243.288 28.65C239.789 28.65 237.016 29.4607 234.968 31.082C232.92 32.618 231.384 34.7513 230.36 37.482C229.421 40.1273 228.781 43.1993 228.44 46.698C228.184 50.1113 228.056 53.6953 228.056 57.45C228.056 61.4607 228.184 65.2153 228.44 68.714C228.781 72.1273 229.421 75.1567 230.36 77.802C231.384 80.362 232.92 82.41 234.968 83.946C237.016 85.482 239.789 86.25 243.288 86.25C246.786 86.25 249.517 85.482 251.48 83.946C253.528 82.41 255.021 80.362 255.96 77.802C256.984 75.1567 257.624 72.1273 257.88 68.714C258.221 65.2153 258.392 61.4607 258.392 57.45Z" fill="url(#paint0_linear_1046_4998)"/>
</g>
<path d="M303 1.25V7.25" stroke="#0054A5" stroke-width="2.5" stroke-linecap="round" stroke-linejoin="round"/>
<path d="M303 15.25V21.25" stroke="#0054A5" stroke-width="2.5" stroke-linecap="round" stroke-linejoin="round"/>
<path d="M293 11.25H299" stroke="#0054A5" stroke-width="2.5" stroke-linecap="round" stroke-linejoin="round"/>
<path d="M307 11.25H313" stroke="#0054A5" stroke-width="2.5" stroke-linecap="round" stroke-linejoin="round"/>
<path d="M16 108.25V114.25" stroke="#0054A5" stroke-width="2.5" stroke-linecap="round" stroke-linejoin="round"/>
<path d="M16 122.25V128.25" stroke="#0054A5" stroke-width="2.5" stroke-linecap="round" stroke-linejoin="round"/>
<path d="M6 118.25H12" stroke="#0054A5" stroke-width="2.5" stroke-linecap="round" stroke-linejoin="round"/>
<path d="M20 118.25H26" stroke="#0054A5" stroke-width="2.5" stroke-linecap="round" stroke-linejoin="round"/>
<defs>
<filter id="filter0_d_1046_4998" x="42.459" y="11.754" width="240.029" height="99.392" filterUnits="userSpaceOnUse" color-interpolation-filters="sRGB">
<feFlood flood-opacity="0" result="BackgroundImageFix"/>
<feColorMatrix in="SourceAlpha" type="matrix" values="0 0 0 0 0 0 0 0 0 0 0 0 0 0 0 0 0 0 127 0" result="hardAlpha"/>
<feOffset dy="4"/>
<feGaussianBlur stdDeviation="2"/>
<feComposite in2="hardAlpha" operator="out"/>
<feColorMatrix type="matrix" values="0 0 0 0 0.148336 0 0 0 0 0.418841 0 0 0 0 0.807692 0 0 0 0.15 0"/>
<feBlend mode="normal" in2="BackgroundImageFix" result="effect1_dropShadow_1046_4998"/>
<feBlend mode="normal" in="SourceGraphic" in2="effect1_dropShadow_1046_4998" result="shape"/>
</filter>
<linearGradient id="paint0_linear_1046_4998" x1="163.768" y1="29.25" x2="169.789" y2="112.887" gradientUnits="userSpaceOnUse">
<stop stop-color="#2474C0"/>
<stop offset="1" stop-color="#033B8F"/>
</linearGradient>
</defs>
</svg>
