<svg width="325" height="164" viewBox="0 0 325 164" fill="none" xmlns="http://www.w3.org/2000/svg">
<path fill-rule="evenodd" clip-rule="evenodd" d="M209.981 133H71.3349C65.4447 133 60.6698 128.209 60.6698 122.3C60.6698 116.391 65.4447 111.6 71.3349 111.6H11.9151C6.02493 111.6 1.25 106.809 1.25 100.9C1.25 94.9906 6.02493 90.2 11.9151 90.2H72.8585C78.7487 90.2 83.5236 85.4095 83.5236 79.5C83.5236 73.5906 78.7487 68.8 72.8585 68.8H34.7689C28.8787 68.8 24.1038 64.0094 24.1038 58.1C24.1038 52.1906 28.8787 47.4 34.7689 47.4H95.7123C89.8221 47.4 85.0472 42.6094 85.0472 36.7C85.0472 30.7906 89.8221 26 95.7123 26H182.557C188.447 26 193.222 30.7906 193.222 36.7C193.222 42.6094 188.447 47.4 182.557 47.4H280.066C285.956 47.4 290.731 52.1906 290.731 58.1C290.731 64.0094 285.956 68.8 280.066 68.8H313.585C319.475 68.8 324.25 73.5906 324.25 79.5C324.25 85.4095 319.475 90.2 313.585 90.2H284.637C278.747 90.2 273.972 94.9906 273.972 100.9C273.972 106.809 278.747 111.6 284.637 111.6H293.778C299.668 111.6 304.443 116.391 304.443 122.3C304.443 128.209 299.668 133 293.778 133H214.552C213.767 133 213.003 132.915 212.267 132.754C211.53 132.915 210.766 133 209.981 133Z" fill="#C7E3F7"/>
<path d="M304.25 26V32" stroke="#0054A5" stroke-width="2.5" stroke-linecap="round" stroke-linejoin="round"/>
<path d="M304.25 40V46" stroke="#0054A5" stroke-width="2.5" stroke-linecap="round" stroke-linejoin="round"/>
<path d="M294.25 36H300.25" stroke="#0054A5" stroke-width="2.5" stroke-linecap="round" stroke-linejoin="round"/>
<path d="M308.25 36H314.25" stroke="#0054A5" stroke-width="2.5" stroke-linecap="round" stroke-linejoin="round"/>
<path d="M11.25 141V147" stroke="#0054A5" stroke-width="2.5" stroke-linecap="round" stroke-linejoin="round"/>
<path d="M11.25 155V161" stroke="#0054A5" stroke-width="2.5" stroke-linecap="round" stroke-linejoin="round"/>
<path d="M1.25 151H7.25" stroke="#0054A5" stroke-width="2.5" stroke-linecap="round" stroke-linejoin="round"/>
<path d="M15.25 151H21.25" stroke="#0054A5" stroke-width="2.5" stroke-linecap="round" stroke-linejoin="round"/>
<path d="M146.167 109.333C133.753 109.333 123.248 105.033 114.651 96.432C106.055 87.8311 101.755 77.326 101.75 64.9167C101.745 52.5073 106.046 42.0022 114.651 33.4013C123.257 24.8004 133.762 20.5 146.167 20.5C158.571 20.5 169.079 24.8004 177.689 33.4013C186.299 42.0022 190.597 52.5073 190.583 64.9167C190.583 69.9278 189.786 74.6542 188.192 79.0958C186.597 83.5375 184.433 87.4667 181.7 90.8833L219.967 129.15C221.219 130.403 221.846 131.997 221.846 133.933C221.846 135.869 221.219 137.464 219.967 138.717C218.714 139.969 217.119 140.596 215.183 140.596C213.247 140.596 211.653 139.969 210.4 138.717L172.133 100.45C168.717 103.183 164.788 105.347 160.346 106.942C155.904 108.536 151.178 109.333 146.167 109.333ZM146.167 95.6667C154.708 95.6667 161.97 92.6782 167.951 86.7013C173.933 80.7244 176.921 73.4629 176.917 64.9167C176.912 56.3704 173.924 49.1112 167.951 43.1388C161.979 37.1665 154.717 34.1758 146.167 34.1667C137.616 34.1576 130.357 37.1483 124.389 43.1388C118.421 49.1294 115.43 56.3887 115.417 64.9167C115.403 73.4447 118.394 80.7062 124.389 86.7013C130.384 92.6964 137.643 95.6849 146.167 95.6667Z" fill="url(#paint0_linear_1046_4996)"/>
<path d="M136.25 68C138.75 80 161.162 91.9999 146.25 91.9999C131.338 91.9999 119.25 79.9116 119.25 64.9999C119.25 50.0883 131.75 37 143.75 37.5C152.25 37.8541 132.418 49.6066 136.25 68Z" fill="white"/>
<defs>
<linearGradient id="paint0_linear_1046_4996" x1="162.404" y1="20.5" x2="188.282" y2="137.926" gradientUnits="userSpaceOnUse">
<stop stop-color="#2474C0"/>
<stop offset="1" stop-color="#033B8F"/>
</linearGradient>
</defs>
</svg>
