<svg width="12" height="7" viewBox="0 0 12 7" fill="none" xmlns="http://www.w3.org/2000/svg">
<path fill-rule="evenodd" clip-rule="evenodd" d="M4.89233 0.350944C5.11733 0.126223 5.42233 0 5.74033 0C6.05833 0 6.36333 0.126223 6.58833 0.350944L11.1147 4.87574C11.2261 4.98721 11.3145 5.11953 11.3748 5.26515C11.4351 5.41076 11.4661 5.56683 11.466 5.72443C11.466 5.88203 11.4349 6.03808 11.3746 6.18366C11.3142 6.32925 11.2258 6.46153 11.1143 6.57294C11.0029 6.68436 10.8705 6.77273 10.7249 6.833C10.5793 6.89328 10.4233 6.92428 10.2657 6.92425C10.1081 6.92421 9.952 6.89313 9.80641 6.83279C9.66082 6.77244 9.52855 6.68401 9.41713 6.57254L5.74033 2.89654L2.06353 6.57334C1.95289 6.68801 1.82052 6.77949 1.67415 6.84245C1.52777 6.90541 1.37032 6.93858 1.21099 6.94004C1.05166 6.9415 0.893627 6.91121 0.746123 6.85094C0.59862 6.79068 0.464596 6.70164 0.351872 6.58902C0.239148 6.4764 0.149982 6.34246 0.0895753 6.19502C0.0291687 6.04757 -0.00126845 5.88957 4.04929e-05 5.73023C0.00134943 5.5709 0.0343781 5.41342 0.0971989 5.26699C0.16002 5.12055 0.251375 4.98809 0.365934 4.87734L4.89233 0.350944Z" fill="#F8FAFC"/>
</svg>
