<svg width="15" height="20" viewBox="0 0 15 20" fill="none" xmlns="http://www.w3.org/2000/svg">
<path fill-rule="evenodd" clip-rule="evenodd" d="M6.80813 18.8756C6.80813 18.8756 0 13.1419 0 7.5C0 5.51088 0.790176 3.60322 2.1967 2.1967C3.60322 0.790176 5.51088 0 7.5 0C9.48912 0 11.3968 0.790176 12.8033 2.1967C14.2098 3.60322 15 5.51088 15 7.5C15 13.1419 8.19187 18.8756 8.19187 18.8756C7.81312 19.2244 7.18969 19.2206 6.80813 18.8756ZM7.5 10.7812C7.9309 10.7813 8.35758 10.6964 8.75568 10.5315C9.15378 10.3666 9.5155 10.1249 9.82019 9.82019C10.1249 9.5155 10.3666 9.15378 10.5315 8.75568C10.6964 8.35758 10.7812 7.9309 10.7812 7.5C10.7812 7.0691 10.6964 6.64242 10.5315 6.24432C10.3666 5.84622 10.1249 5.4845 9.82019 5.17981C9.5155 4.87511 9.15378 4.63342 8.75568 4.46852C8.35758 4.30362 7.9309 4.21875 7.5 4.21875C6.62976 4.21875 5.79516 4.56445 5.17981 5.17981C4.56445 5.79516 4.21875 6.62976 4.21875 7.5C4.21875 8.37024 4.56445 9.20484 5.17981 9.82019C5.79516 10.4355 6.62976 10.7812 7.5 10.7812Z" fill="#0054A5"/>
</svg>
