<svg width="305" height="154" viewBox="0 0 305 154" fill="none" xmlns="http://www.w3.org/2000/svg">
<path fill-rule="evenodd" clip-rule="evenodd" d="M196.979 124.765H66.9181C61.3927 124.765 56.9134 120.271 56.9134 114.727C56.9134 109.184 61.3927 104.69 66.9181 104.69H11.1776C5.65212 104.69 1.17285 100.196 1.17285 94.6524C1.17285 89.1088 5.65212 84.6149 11.1776 84.6149H68.3474C73.8728 84.6149 78.3521 80.121 78.3521 74.5774C78.3521 69.0339 73.8728 64.54 68.3474 64.54H32.6162C27.0908 64.54 22.6115 60.0461 22.6115 54.5025C22.6115 48.959 27.0908 44.4651 32.6162 44.4651H89.7861C84.2606 44.4651 79.7813 39.9711 79.7813 34.4276C79.7813 28.8841 84.2606 24.3901 89.7861 24.3901H171.253C176.779 24.3901 181.258 28.8841 181.258 34.4276C181.258 39.9711 176.779 44.4651 171.253 44.4651H262.725C268.25 44.4651 272.729 48.959 272.729 54.5025C272.729 60.0461 268.25 64.54 262.725 64.54H294.168C299.694 64.54 304.173 69.0339 304.173 74.5774C304.173 80.121 299.694 84.6149 294.168 84.6149H267.012C261.487 84.6149 257.008 89.1088 257.008 94.6524C257.008 100.196 261.487 104.69 267.012 104.69H275.588C281.113 104.69 285.593 109.184 285.593 114.727C285.593 120.271 281.113 124.765 275.588 124.765H201.267C200.531 124.765 199.814 124.685 199.123 124.534C198.433 124.685 197.715 124.765 196.979 124.765Z" fill="#DDEEFA"/>
<path d="M285.411 24.3901V30.0186" stroke="#0054A5" stroke-width="2.3452" stroke-linecap="round" stroke-linejoin="round"/>
<path d="M285.411 37.5232V43.1517" stroke="#0054A5" stroke-width="2.3452" stroke-linecap="round" stroke-linejoin="round"/>
<path d="M276.03 33.7709H281.659" stroke="#0054A5" stroke-width="2.3452" stroke-linecap="round" stroke-linejoin="round"/>
<path d="M289.163 33.7709H294.792" stroke="#0054A5" stroke-width="2.3452" stroke-linecap="round" stroke-linejoin="round"/>
<path d="M10.554 132.269V137.898" stroke="#0054A5" stroke-width="2.3452" stroke-linecap="round" stroke-linejoin="round"/>
<path d="M10.554 145.403V151.031" stroke="#0054A5" stroke-width="2.3452" stroke-linecap="round" stroke-linejoin="round"/>
<path d="M1.17285 141.65H6.80133" stroke="#0054A5" stroke-width="2.3452" stroke-linecap="round" stroke-linejoin="round"/>
<path d="M14.3057 141.65H19.9341" stroke="#0054A5" stroke-width="2.3452" stroke-linecap="round" stroke-linejoin="round"/>
<path d="M207.048 71.3688C204.764 68.3013 201.26 66.5378 197.433 66.5378H195.355V57.218C195.355 44.2867 184.835 33.7662 171.903 33.7662H148.189C147.466 33.7662 146.735 33.5926 146.092 33.2737L131.294 25.8723C129.352 24.9014 127.176 24.3901 125 24.3901H115.619C105.272 24.3854 96.8574 32.8 96.8574 43.1469V104.122C96.8574 117.053 107.378 127.573 120.309 127.573H179.211C189.652 127.573 198.676 120.857 201.734 110.655L208.92 81.9691C210.017 78.3012 209.332 74.441 207.048 71.3688ZM106.238 104.122V43.1469C106.238 37.9734 110.445 33.7662 115.619 33.7662H125C125.722 33.7662 126.454 33.9397 127.096 34.2587L141.894 41.6601C143.836 42.631 146.012 43.1422 148.189 43.1422H171.903C179.661 43.1422 185.974 49.4555 185.974 57.2133V66.5331H137.265C129.291 66.5331 122.171 71.594 119.493 79.2909L109.221 112.771C107.354 110.383 106.238 107.381 106.238 104.122ZM199.877 79.4832L192.691 108.165C190.89 114.164 185.472 118.193 179.211 118.193H120.309C119.334 118.193 118.382 118.094 117.462 117.902L128.41 82.213C129.718 78.4466 133.283 75.9185 137.27 75.9185H197.438C198.573 75.9185 199.234 76.5751 199.525 76.9691C199.816 77.3631 200.257 78.1839 199.877 79.4832Z" fill="url(#paint0_linear_834_4910)"/>
<path d="M130.628 89.1177L133.24 93.3746C139.584 103.713 150.34 110.525 162.376 112.03C174.865 113.592 187.697 115.384 180.816 115.384C168.621 115.384 122.186 114.915 122.186 114.915L130.628 89.1177Z" fill="white"/>
<defs>
<linearGradient id="paint0_linear_834_4910" x1="153.714" y1="24.3901" x2="174.245" y2="126.032" gradientUnits="userSpaceOnUse">
<stop stop-color="#2474C0"/>
<stop offset="1" stop-color="#033B8F"/>
</linearGradient>
</defs>
</svg>
