<svg width="21" height="21" viewBox="0 0 21 21" fill="none" xmlns="http://www.w3.org/2000/svg">
<path d="M7.375 7.375V4.45833C7.375 3.29167 7.375 2.70833 7.60208 2.2625C7.80208 1.86979 8.11979 1.55208 8.5125 1.35208C8.95833 1.125 9.54167 1.125 10.7083 1.125H16.5417C17.7083 1.125 18.2917 1.125 18.7375 1.35208C19.1295 1.55182 19.4482 1.87051 19.6479 2.2625C19.875 2.70833 19.875 3.29167 19.875 4.45833V10.2917C19.875 11.4583 19.875 12.0417 19.6479 12.4875C19.4482 12.8795 19.1295 13.1982 18.7375 13.3979C18.2917 13.625 17.7083 13.625 16.5448 13.625H13.625M7.375 7.375H4.45833C3.29167 7.375 2.70833 7.375 2.2625 7.60208C1.87051 7.80182 1.55182 8.12051 1.35208 8.5125C1.125 8.95833 1.125 9.54167 1.125 10.7083V16.5417C1.125 17.7083 1.125 18.2917 1.35208 18.7375C1.55182 19.1295 1.87051 19.4482 2.2625 19.6479C2.70729 19.875 3.29062 19.875 4.45521 19.875H10.2958C11.4594 19.875 12.0417 19.875 12.4875 19.6479C12.8795 19.4482 13.1982 19.1295 13.3979 18.7375C13.625 18.2917 13.625 17.7094 13.625 16.5448V13.625M7.375 7.375H10.2917C11.4583 7.375 12.0417 7.375 12.4875 7.60208C12.8795 7.80182 13.1982 8.12051 13.3979 8.5125C13.625 8.95729 13.625 9.54062 13.625 10.7052V13.625" stroke="#F8FAFC" stroke-width="1.95349" stroke-linecap="round" stroke-linejoin="round"/>
</svg>
