<svg width="11" height="14" viewBox="0 0 11 14" fill="none" xmlns="http://www.w3.org/2000/svg">
<path d="M3.36425 0.561615C2.98283 0.561615 2.64809 0.814283 2.54267 1.18121L0.732156 7.51722C0.695765 7.64447 0.689429 7.77843 0.713646 7.90855C0.737863 8.03867 0.791972 8.16138 0.871707 8.26702C0.951441 8.37265 1.05462 8.45833 1.17312 8.51728C1.29161 8.57624 1.42218 8.60687 1.55453 8.60675H2.57406L1.63259 12.3726C1.42015 13.2216 2.47025 13.8025 3.07778 13.1733L10.0591 6.04547L10.0624 6.04225C10.5773 5.50553 10.2072 4.58499 9.44517 4.58499H7.38198L8.39748 1.69299L8.39909 1.68655C8.44195 1.55805 8.45365 1.42121 8.43322 1.2873C8.41279 1.15339 8.36082 1.02626 8.2816 0.916383C8.20237 0.806509 8.09817 0.717041 7.97757 0.655358C7.85697 0.593676 7.72344 0.561544 7.58798 0.561615H3.36425Z" fill="url(#paint0_linear_444_35207)"/>
<defs>
<linearGradient id="paint0_linear_444_35207" x1="5.50011" y1="0.561615" x2="5.50011" y2="13.4384" gradientUnits="userSpaceOnUse">
<stop stop-color="#0054A5"/>
<stop offset="1" stop-color="#092868"/>
</linearGradient>
</defs>
</svg>
