<svg width="46" height="46" viewBox="0 0 46 46" fill="none" xmlns="http://www.w3.org/2000/svg">
<path fill-rule="evenodd" clip-rule="evenodd" d="M24.1148 3.81716C26.4899 1.51712 29.674 0.242917 32.9801 0.269449C36.2862 0.295982 39.4494 1.62112 41.7873 3.95899C44.1252 6.29686 45.4503 9.46006 45.4768 12.7662C45.5034 16.0723 44.2292 19.2564 41.9291 21.6315L41.8948 21.6658L35.9215 27.6417C34.6441 28.9191 33.1069 29.9068 31.4143 30.5379C29.7216 31.1691 27.913 31.4289 26.1112 31.2998C24.3093 31.1707 22.5562 30.6556 20.9709 29.7896C19.3855 28.9235 18.0049 27.7267 16.9226 26.2803C16.5199 25.7192 16.3534 25.0226 16.4586 24.3401C16.5638 23.6575 16.9325 23.0434 17.4855 22.6297C18.0384 22.2159 18.7316 22.0354 19.4161 22.127C20.1006 22.2186 20.7219 22.575 21.1466 23.1195C21.7751 23.9608 22.5773 24.6569 23.4987 25.1607C24.4201 25.6645 25.4391 25.9641 26.4865 26.0392C27.5339 26.1143 28.5853 25.9631 29.5691 25.5959C30.5529 25.2287 31.4462 24.6541 32.1882 23.9111L38.1483 17.951C39.4519 16.5639 40.1643 14.7238 40.1345 12.8206C40.1048 10.9173 39.3352 9.10044 37.9889 7.75481C36.6426 6.40919 34.8253 5.64057 32.9221 5.61178C31.0188 5.58299 29.1791 6.29631 27.7927 7.6006L24.3813 10.9936C23.8824 11.4729 23.2151 11.7371 22.5232 11.7293C21.8314 11.7214 21.1703 11.442 20.6824 10.9514C20.1946 10.4607 19.9189 9.7981 19.915 9.1062C19.911 8.41431 20.179 7.74854 20.6612 7.25233L24.0858 3.84618L24.1148 3.81716ZM14.6246 14.8772C17.1756 13.926 19.9662 13.8268 22.5784 14.5945C25.1906 15.3621 27.4838 16.9554 29.1145 19.1356C29.5172 19.6967 29.6837 20.3933 29.5785 21.0758C29.4733 21.7584 29.1046 22.3725 28.5516 22.7862C27.9987 23.2 27.3056 23.3805 26.621 23.2889C25.9365 23.1973 25.3152 22.8409 24.8905 22.2964C24.2617 21.4555 23.4594 20.7597 22.538 20.2562C21.6167 19.7527 20.5978 19.4532 19.5505 19.3781C18.5032 19.303 17.452 19.4541 16.4683 19.8211C15.4845 20.188 14.5912 20.7623 13.8489 21.5049L7.89142 27.465C6.56783 28.8475 5.83827 30.6934 5.859 32.6073C5.87973 34.5212 6.6491 36.3509 8.00233 37.7044C9.35556 39.058 11.185 39.8278 13.0989 39.8491C15.0128 39.8703 16.8589 39.1412 18.2418 37.8179L21.6321 34.4276C21.8755 34.1756 22.1666 33.9746 22.4885 33.8364C22.8104 33.6981 23.1566 33.6253 23.5069 33.6223C23.8572 33.6192 24.2047 33.686 24.5289 33.8186C24.8532 33.9513 25.1477 34.1472 25.3955 34.3949C25.6432 34.6427 25.8391 34.9372 25.9718 35.2615C26.1044 35.5857 26.1712 35.9332 26.1681 36.2835C26.1651 36.6338 26.0923 36.98 25.954 37.3019C25.8157 37.6238 25.6147 37.9149 25.3628 38.1583L21.9566 41.5644L21.9249 41.5987C19.5499 43.8988 16.3658 45.173 13.0597 45.1465C9.75352 45.1199 6.59031 43.7948 4.25244 41.4569C1.91458 39.1191 0.589439 35.9558 0.562906 32.6497C0.536374 29.3436 1.81057 26.1595 4.11062 23.7844L4.14228 23.7501L10.1182 17.7742C11.3966 16.4982 12.933 15.5105 14.6246 14.8772Z" fill="url(#paint0_linear_404_147)"/>
<defs>
<linearGradient id="paint0_linear_404_147" x1="23.0199" y1="0.269043" x2="23.0199" y2="45.1469" gradientUnits="userSpaceOnUse">
<stop stop-color="#2464C4"/>
<stop offset="1" stop-color="#121350"/>
</linearGradient>
</defs>
</svg>
