<svg width="57" height="57" viewBox="0 0 57 57" fill="none" xmlns="http://www.w3.org/2000/svg">
<path d="M3.45272 0.810547C2.60408 0.810547 1.7902 1.14767 1.19013 1.74774C0.59005 2.34782 0.25293 3.1617 0.25293 4.01033V16.8095H16.2519V0.810547H3.45272ZM12.2521 12.8097H4.25266V4.81028H12.2521V12.8097Z" fill="url(#paint0_linear_414_156)"/>
<path d="M0.25293 53.6073C0.25293 54.4559 0.59005 55.2698 1.19013 55.8698C1.7902 56.4699 2.60408 56.807 3.45272 56.807H16.2519V40.8081H0.25293V53.6073ZM4.25266 44.8078H12.2521V52.8073H4.25266V44.8078Z" fill="url(#paint1_linear_414_156)"/>
<path d="M40.25 56.807H53.0491C53.8978 56.807 54.7117 56.4699 55.3117 55.8698C55.9118 55.2698 56.2489 54.4559 56.2489 53.6073V40.8081H40.25V56.807ZM44.2497 44.8078H52.2492V52.8073H44.2497V44.8078Z" fill="url(#paint2_linear_414_156)"/>
<path d="M53.0491 0.810547H40.25V16.8095H56.2489V4.01033C56.2489 3.1617 55.9118 2.34782 55.3117 1.74774C54.7117 1.14767 53.8978 0.810547 53.0491 0.810547ZM52.2492 12.8097H44.2497V4.81028H52.2492V12.8097Z" fill="url(#paint3_linear_414_156)"/>
<path d="M32.2495 12.8098V8.81006H24.25V16.8095H28.2497V12.8098H32.2495Z" fill="url(#paint4_linear_414_156)"/>
<path d="M16.252 16.8096H20.2517V20.8093H16.252V16.8096Z" fill="url(#paint5_linear_414_156)"/>
<path d="M20.252 20.8091H28.2514V24.8088H20.252V20.8091Z" fill="url(#paint6_linear_414_156)"/>
<path d="M32.2512 4.81028V8.81001H36.2509V0.810547H20.252V8.81001H24.2517V4.81028H32.2512Z" fill="url(#paint7_linear_414_156)"/>
<path d="M0.25293 20.8091H4.25266V28.8085H0.25293V20.8091Z" fill="url(#paint8_linear_414_156)"/>
<path d="M16.2519 24.8088V28.8085H12.2521V20.8091H8.2524V28.8085H4.25266V32.8083H0.25293V36.808H8.2524V32.8083H12.2521V36.808H16.2519V32.8083H20.2516V24.8088H16.2519Z" fill="url(#paint9_linear_414_156)"/>
<path d="M32.2507 24.8088H36.2504V28.8085H40.2502V24.8088H44.2499V20.809H36.2504V12.8096H32.2507V16.8093H28.251V20.809H32.2507V24.8088Z" fill="url(#paint10_linear_414_156)"/>
<path d="M28.2514 52.8069H20.252V56.8066H36.2509V52.8069H32.2512V48.8071H28.2514V52.8069Z" fill="url(#paint11_linear_414_156)"/>
<path d="M36.2492 32.8085V28.8088H32.2495V24.8091H28.2497V28.8088H24.25V32.8085H28.2497V36.8083H32.2495V32.8085H36.2492Z" fill="url(#paint12_linear_414_156)"/>
<path d="M52.25 32.8086H56.2497V36.8083H52.25V32.8086Z" fill="url(#paint13_linear_414_156)"/>
<path d="M36.25 32.8086H48.2492V36.8083H36.25V32.8086Z" fill="url(#paint14_linear_414_156)"/>
<path d="M52.2504 20.8091H48.2507V24.8088H44.251V28.8085H48.2507V32.8083H52.2504V28.8085H56.2502V24.8088H52.2504V20.8091Z" fill="url(#paint15_linear_414_156)"/>
<path d="M32.252 36.8081H36.2517V48.8073H32.252V36.8081Z" fill="url(#paint16_linear_414_156)"/>
<path d="M20.252 48.8075H24.2517V44.8078H28.2514V40.8081H24.2517V32.8086H20.252V48.8075Z" fill="url(#paint17_linear_414_156)"/>
<defs>
<linearGradient id="paint0_linear_414_156" x1="8.2524" y1="0.810547" x2="8.2524" y2="16.8095" gradientUnits="userSpaceOnUse">
<stop stop-color="#266BCE"/>
<stop offset="1" stop-color="#100D48"/>
</linearGradient>
<linearGradient id="paint1_linear_414_156" x1="8.2524" y1="40.8081" x2="8.2524" y2="56.807" gradientUnits="userSpaceOnUse">
<stop stop-color="#266BCE"/>
<stop offset="1" stop-color="#100D48"/>
</linearGradient>
<linearGradient id="paint2_linear_414_156" x1="48.2495" y1="40.8081" x2="48.2495" y2="56.807" gradientUnits="userSpaceOnUse">
<stop stop-color="#266BCE"/>
<stop offset="1" stop-color="#100D48"/>
</linearGradient>
<linearGradient id="paint3_linear_414_156" x1="48.2495" y1="0.810547" x2="48.2495" y2="16.8095" gradientUnits="userSpaceOnUse">
<stop stop-color="#266BCE"/>
<stop offset="1" stop-color="#100D48"/>
</linearGradient>
<linearGradient id="paint4_linear_414_156" x1="28.2497" y1="8.81006" x2="28.2497" y2="16.8095" gradientUnits="userSpaceOnUse">
<stop stop-color="#266BCE"/>
<stop offset="1" stop-color="#100D48"/>
</linearGradient>
<linearGradient id="paint5_linear_414_156" x1="18.2518" y1="16.8096" x2="18.2518" y2="20.8093" gradientUnits="userSpaceOnUse">
<stop stop-color="#266BCE"/>
<stop offset="1" stop-color="#100D48"/>
</linearGradient>
<linearGradient id="paint6_linear_414_156" x1="24.2517" y1="20.8091" x2="24.2517" y2="24.8088" gradientUnits="userSpaceOnUse">
<stop stop-color="#266BCE"/>
<stop offset="1" stop-color="#100D48"/>
</linearGradient>
<linearGradient id="paint7_linear_414_156" x1="28.2514" y1="0.810547" x2="28.2514" y2="8.81001" gradientUnits="userSpaceOnUse">
<stop stop-color="#266BCE"/>
<stop offset="1" stop-color="#100D48"/>
</linearGradient>
<linearGradient id="paint8_linear_414_156" x1="2.2528" y1="20.8091" x2="2.2528" y2="28.8085" gradientUnits="userSpaceOnUse">
<stop stop-color="#266BCE"/>
<stop offset="1" stop-color="#100D48"/>
</linearGradient>
<linearGradient id="paint9_linear_414_156" x1="10.2523" y1="20.8091" x2="10.2523" y2="36.808" gradientUnits="userSpaceOnUse">
<stop stop-color="#266BCE"/>
<stop offset="1" stop-color="#100D48"/>
</linearGradient>
<linearGradient id="paint10_linear_414_156" x1="36.2504" y1="12.8096" x2="36.2504" y2="28.8085" gradientUnits="userSpaceOnUse">
<stop stop-color="#266BCE"/>
<stop offset="1" stop-color="#100D48"/>
</linearGradient>
<linearGradient id="paint11_linear_414_156" x1="28.2514" y1="48.8071" x2="28.2514" y2="56.8066" gradientUnits="userSpaceOnUse">
<stop stop-color="#266BCE"/>
<stop offset="1" stop-color="#100D48"/>
</linearGradient>
<linearGradient id="paint12_linear_414_156" x1="30.2496" y1="24.8091" x2="30.2496" y2="36.8083" gradientUnits="userSpaceOnUse">
<stop stop-color="#266BCE"/>
<stop offset="1" stop-color="#100D48"/>
</linearGradient>
<linearGradient id="paint13_linear_414_156" x1="54.2499" y1="32.8086" x2="54.2499" y2="36.8083" gradientUnits="userSpaceOnUse">
<stop stop-color="#266BCE"/>
<stop offset="1" stop-color="#100D48"/>
</linearGradient>
<linearGradient id="paint14_linear_414_156" x1="42.2496" y1="32.8086" x2="42.2496" y2="36.8083" gradientUnits="userSpaceOnUse">
<stop stop-color="#266BCE"/>
<stop offset="1" stop-color="#100D48"/>
</linearGradient>
<linearGradient id="paint15_linear_414_156" x1="50.2506" y1="20.8091" x2="50.2506" y2="32.8083" gradientUnits="userSpaceOnUse">
<stop stop-color="#266BCE"/>
<stop offset="1" stop-color="#100D48"/>
</linearGradient>
<linearGradient id="paint16_linear_414_156" x1="34.2518" y1="36.8081" x2="34.2518" y2="48.8073" gradientUnits="userSpaceOnUse">
<stop stop-color="#266BCE"/>
<stop offset="1" stop-color="#100D48"/>
</linearGradient>
<linearGradient id="paint17_linear_414_156" x1="24.2517" y1="32.8086" x2="24.2517" y2="48.8075" gradientUnits="userSpaceOnUse">
<stop stop-color="#266BCE"/>
<stop offset="1" stop-color="#100D48"/>
</linearGradient>
</defs>
</svg>
