<svg width="22" height="22" viewBox="0 0 22 22" fill="none" xmlns="http://www.w3.org/2000/svg">
<path fill-rule="evenodd" clip-rule="evenodd" d="M14.6668 8.25001C14.6668 9.22247 14.2805 10.1551 13.5929 10.8427C12.9053 11.5304 11.9726 11.9167 11.0002 11.9167C10.0277 11.9167 9.09507 11.5304 8.40744 10.8427C7.7198 10.1551 7.3335 9.22247 7.3335 8.25001C7.3335 7.27755 7.7198 6.34492 8.40744 5.65729C9.09507 4.96965 10.0277 4.58334 11.0002 4.58334C11.9726 4.58334 12.9053 4.96965 13.5929 5.65729C14.2805 6.34492 14.6668 7.27755 14.6668 8.25001ZM12.8335 8.25001C12.8335 8.73624 12.6403 9.20256 12.2965 9.54637C11.9527 9.89019 11.4864 10.0833 11.0002 10.0833C10.5139 10.0833 10.0476 9.89019 9.7038 9.54637C9.35998 9.20256 9.16683 8.73624 9.16683 8.25001C9.16683 7.76378 9.35998 7.29746 9.7038 6.95365C10.0476 6.60983 10.5139 6.41668 11.0002 6.41668C11.4864 6.41668 11.9527 6.60983 12.2965 6.95365C12.6403 7.29746 12.8335 7.76378 12.8335 8.25001Z" fill="#64748B"/>
<path fill-rule="evenodd" clip-rule="evenodd" d="M11.0001 0.916672C5.43133 0.916672 0.916748 5.43125 0.916748 11C0.916748 16.5688 5.43133 21.0833 11.0001 21.0833C16.5688 21.0833 21.0834 16.5688 21.0834 11C21.0834 5.43125 16.5688 0.916672 11.0001 0.916672ZM2.75008 11C2.75008 12.9158 3.40366 14.6795 4.49908 16.0802C5.26857 15.0701 6.26106 14.2515 7.39908 13.6883C8.53711 13.1251 9.7899 12.8325 11.0597 12.8333C12.3131 12.8319 13.5503 13.1167 14.6769 13.666C15.8036 14.2154 16.7899 15.0147 17.5607 16.0032C18.3549 14.9615 18.8897 13.7456 19.1207 12.4562C19.3518 11.1668 19.2725 9.84091 18.8894 8.58824C18.5063 7.33557 17.8304 6.19213 16.9176 5.25254C16.0049 4.31295 14.8815 3.60421 13.6404 3.18497C12.3994 2.76573 11.0763 2.64805 9.78079 2.84165C8.48523 3.03525 7.25439 3.53457 6.19012 4.2983C5.12585 5.06204 4.25874 6.06822 3.66054 7.2336C3.06234 8.39898 2.75025 9.69006 2.75008 11ZM11.0001 19.25C9.10616 19.2531 7.26938 18.6015 5.80075 17.4057C6.39182 16.5592 7.17867 15.8682 8.09432 15.3913C9.00996 14.9144 10.0273 14.6658 11.0597 14.6667C12.0792 14.6658 13.0842 14.9082 13.9911 15.3737C14.8981 15.8392 15.681 16.5145 16.2746 17.3433C14.7946 18.5781 12.9275 19.253 11.0001 19.25Z" fill="#64748B"/>
</svg>
