<svg width="13" height="16" viewBox="0 0 13 16" fill="none" xmlns="http://www.w3.org/2000/svg">
<path d="M10.7029 5.5373H10.0071V4.14571C10.0071 2.22532 8.44854 0.666748 6.52815 0.666748C4.60776 0.666748 3.04919 2.22532 3.04919 4.14571V5.5373H2.35339C1.58802 5.5373 0.961807 6.16351 0.961807 6.92888V13.8868C0.961807 14.6522 1.58802 15.2784 2.35339 15.2784H10.7029C11.4683 15.2784 12.0945 14.6522 12.0945 13.8868V6.92888C12.0945 6.16351 11.4683 5.5373 10.7029 5.5373ZM4.44077 4.14571C4.44077 2.9907 5.37313 2.05833 6.52815 2.05833C7.68317 2.05833 8.61553 2.9907 8.61553 4.14571V5.5373H4.44077V4.14571ZM10.7029 13.8868H2.35339V6.92888H10.7029V13.8868ZM6.52815 11.7994C7.29352 11.7994 7.91974 11.1732 7.91974 10.4078C7.91974 9.64248 7.29352 9.01626 6.52815 9.01626C5.76278 9.01626 5.13656 9.64248 5.13656 10.4078C5.13656 11.1732 5.76278 11.7994 6.52815 11.7994Z" fill="#64748B"/>
</svg>
