<svg width="30" height="30" viewBox="0 0 30 30" fill="none" xmlns="http://www.w3.org/2000/svg">
<path fill-rule="evenodd" clip-rule="evenodd" d="M15 30C23.2845 30 30 23.2845 30 15C30 6.7155 23.2845 0 15 0C6.7155 0 0 6.7155 0 15C0 23.2845 6.7155 30 15 30ZM21.099 8.901C21.3097 9.11194 21.428 9.39787 21.428 9.696C21.428 9.99413 21.3097 10.2801 21.099 10.491L16.59 15L21.0975 19.5075C21.2962 19.7208 21.4044 20.0028 21.3993 20.2943C21.3941 20.5857 21.2761 20.8638 21.0699 21.0699C20.8638 21.2761 20.5857 21.3941 20.2943 21.3993C20.0028 21.4044 19.7208 21.2962 19.5075 21.0975L15 16.593L10.4925 21.1005C10.3895 21.211 10.2653 21.2997 10.1273 21.3612C9.98931 21.4227 9.84034 21.4557 9.68928 21.4584C9.53823 21.4611 9.38819 21.4333 9.2481 21.3767C9.10802 21.3201 8.98077 21.2359 8.87394 21.1291C8.76711 21.0222 8.6829 20.895 8.62632 20.7549C8.56973 20.6148 8.54195 20.4648 8.54461 20.3137C8.54728 20.1627 8.58034 20.0137 8.64183 19.8757C8.70332 19.7377 8.79197 19.6135 8.9025 19.5105L13.407 15L8.901 10.4925C8.79047 10.3895 8.70182 10.2653 8.64033 10.1273C8.57884 9.98931 8.54578 9.84034 8.54311 9.68928C8.54045 9.53823 8.56823 9.38819 8.62482 9.2481C8.6814 9.10802 8.76561 8.98077 8.87244 8.87394C8.97927 8.76711 9.10652 8.6829 9.2466 8.62632C9.38669 8.56973 9.53673 8.54195 9.68778 8.54461C9.83884 8.54728 9.98781 8.58034 10.1258 8.64183C10.2638 8.70332 10.388 8.79197 10.491 8.9025L15 13.407L19.5075 8.8995C19.7184 8.68882 20.0044 8.57049 20.3025 8.57049C20.6006 8.57049 20.8866 8.68882 21.0975 8.8995" fill="#F8FAFC"/>
</svg>
