<svg width="30" height="30" viewBox="0 0 30 30" fill="none" xmlns="http://www.w3.org/2000/svg">
<g clip-path="url(#clip0_431_321)">
<mask id="mask0_431_321" style="mask-type:luminance" maskUnits="userSpaceOnUse" x="0" y="0" width="31" height="31">
<path d="M15.042 28.084C16.755 28.0861 18.4515 27.7497 20.0341 27.0941C21.6167 26.4386 23.0542 25.4768 24.264 24.264C25.4768 23.0542 26.4386 21.6167 27.0941 20.0341C27.7497 18.4515 28.0861 16.755 28.084 15.042C28.0861 13.329 27.7497 11.6324 27.0941 10.0498C26.4386 8.46724 25.4768 7.02976 24.264 5.82001C23.0542 4.60721 21.6167 3.6454 20.0341 2.98984C18.4515 2.33428 16.755 1.9979 15.042 2.00001C13.329 1.9979 11.6324 2.33428 10.0498 2.98984C8.46724 3.6454 7.02976 4.60721 5.82001 5.82001C4.60721 7.02976 3.6454 8.46724 2.98984 10.0498C2.33428 11.6324 1.9979 13.329 2.00001 15.042C1.9979 16.755 2.33428 18.4515 2.98984 20.0341C3.6454 21.6167 4.60721 23.0542 5.82001 24.264C7.02976 25.4768 8.46724 26.4386 10.0498 27.0941C11.6324 27.7497 13.329 28.0861 15.042 28.084Z" fill="white" stroke="white" stroke-width="3.91667" stroke-linejoin="round"/>
<path d="M9.8252 15.0415L13.7378 18.9541L21.563 11.1289" stroke="black" stroke-width="3.91667" stroke-linecap="round" stroke-linejoin="round"/>
</mask>
<g mask="url(#mask0_431_321)">
<path d="M-0.607971 -0.608398H30.6928V30.6924H-0.607971V-0.608398Z" fill="#F8FAFC"/>
</g>
</g>
<defs>
<clipPath id="clip0_431_321">
<rect width="30" height="30" fill="white"/>
</clipPath>
</defs>
</svg>
