<svg width="11" height="14" viewBox="0 0 11 14" fill="none" xmlns="http://www.w3.org/2000/svg">
<path d="M9.24965 4.5H8.62465V3.25C8.62465 1.525 7.22465 0.125 5.49965 0.125C3.77465 0.125 2.37465 1.525 2.37465 3.25V4.5H1.74965C1.06215 4.5 0.499649 5.0625 0.499649 5.75V12C0.499649 12.6875 1.06215 13.25 1.74965 13.25H9.24965C9.93715 13.25 10.4996 12.6875 10.4996 12V5.75C10.4996 5.0625 9.93715 4.5 9.24965 4.5ZM3.62465 3.25C3.62465 2.2125 4.46215 1.375 5.49965 1.375C6.53715 1.375 7.37465 2.2125 7.37465 3.25V4.5H3.62465V3.25ZM9.24965 12H1.74965V5.75H9.24965V12ZM5.49965 10.125C6.18715 10.125 6.74965 9.5625 6.74965 8.875C6.74965 8.1875 6.18715 7.625 5.49965 7.625C4.81215 7.625 4.24965 8.1875 4.24965 8.875C4.24965 9.5625 4.81215 10.125 5.49965 10.125Z" fill="#64748B"/>
</svg>
