<svg width="151" height="38" viewBox="0 0 151 38" fill="none" xmlns="http://www.w3.org/2000/svg">
<path d="M33.522 24.5671C34.402 26.8871 30.362 30.1271 28.682 30.9271C27.122 31.7271 25.322 32.0071 23.562 31.8871C22.082 31.8071 21.162 30.9271 20.082 32.5671C17.402 36.6071 12.762 38.7671 7.92201 37.6071C6.32201 37.1671 5.76201 36.2471 4.44201 37.2471C2.24201 38.8071 -0.0779882 37.5271 0.00201182 35.0071C0.162012 31.5271 0.522012 28.0871 0.682012 24.6471C0.962012 18.2871 1.40201 8.48713 1.08201 3.24713C0.882012 0.207134 6.44201 -1.47287 6.64201 1.72713C6.96201 6.40713 6.68201 10.8071 6.60201 15.5271C12.682 10.8471 21.442 12.6471 23.082 20.7271C23.482 22.6871 23.002 26.0871 24.002 26.9671C24.562 27.4871 25.802 27.1671 26.362 26.8871C27.642 26.2471 28.042 24.8071 29.082 24.0471C30.282 23.1271 32.882 22.7671 33.522 24.5671ZM6.12201 28.6871C6.5 34 17.4619 33.3071 17.522 25.0871C17.882 21.7671 16.042 16.3271 11.642 17.9271C7.24201 19.5271 6.40201 24.5671 6.12201 28.6871Z" fill="url(#paint0_linear_1018_5037)"/>
<path d="M55.3923 24.2871C57.7523 25.8471 55.5523 31.2471 54.2723 33.0471C52.4723 35.6071 49.5123 36.9271 46.4323 36.9671C37.5123 37.0871 40.9923 26.3671 41.1123 21.1271C41.2323 17.5671 38.1523 17.1671 36.1523 19.7671C34.1523 22.3271 33.6323 26.6871 33.2323 29.8471C32.9123 32.4871 33.3123 37.0471 29.6323 37.3271C25.9123 37.5671 27.2723 33.0871 27.3523 32.4471C27.9523 27.8071 28.1123 22.8871 27.6323 18.2071C27.4323 16.0071 26.4723 13.7271 29.2323 12.7271C31.8723 11.7671 32.7123 13.5671 33.1123 15.7671C36.0323 13.2071 40.8723 11.9271 44.2723 14.3671C47.7523 16.9271 46.8323 21.3671 46.3123 25.0071C46.0723 26.8471 45.4323 29.2871 46.0723 31.0471C46.6723 32.6871 48.4323 32.1671 49.3923 31.0071C50.7923 29.3271 49.9523 27.0871 50.9523 25.4071C51.7923 24.0071 54.0323 23.3671 55.3923 24.2871Z" fill="url(#paint1_linear_1018_5037)"/>
<path d="M77.2717 23.1671C79.6717 24.7671 77.0717 29.1271 75.7917 30.6871C73.9517 32.8871 71.4717 34.4471 68.8317 35.4471C63.0717 37.6071 55.3517 36.7271 52.0317 30.9671C48.9917 25.7671 50.3917 17.8071 55.2317 14.1671C60.7117 10.0471 71.3517 13.0071 68.5117 19.9271C67.9517 21.2871 65.9117 22.0471 64.5517 21.6071C62.2317 20.8471 64.0717 18.6071 62.6717 17.4071C60.9517 15.8471 58.3517 17.4871 57.4317 18.9671C56.1517 21.0871 55.8717 24.0471 56.4717 26.4071C57.9117 32.3271 65.1117 32.9271 69.5117 29.8871C71.4717 28.5271 71.8317 27.2871 72.4717 25.2071C73.0717 23.3271 75.4317 21.9671 77.2717 23.1671Z" fill="url(#paint2_linear_1018_5037)"/>
<path d="M99.3029 23.1671C101.703 24.7671 99.103 29.1271 97.823 30.6871C95.983 32.8871 93.503 34.4471 90.863 35.4471C85.103 37.6071 77.383 36.7271 74.063 30.9671C71.023 25.7671 72.4229 17.8071 77.2629 14.1671C82.7429 10.0471 93.383 13.0071 90.543 19.9271C89.983 21.2871 87.9429 22.0471 86.5829 21.6071C84.2629 20.8471 86.1029 18.6071 84.7029 17.4071C82.9829 15.8471 80.383 17.4871 79.463 18.9671C78.183 21.0871 77.903 24.0471 78.503 26.4071C79.943 32.3271 87.143 32.9271 91.543 29.8871C93.503 28.5271 93.863 27.2871 94.503 25.2071C95.103 23.3271 97.4629 21.9671 99.3029 23.1671Z" fill="url(#paint3_linear_1018_5037)"/>
<path d="M105.885 33.8871C107.885 37.5271 101.734 39.2246 100.5 36.7271C98.3849 32.4471 104.385 30.4343 105.885 33.8871Z" fill="url(#paint4_linear_1018_5037)"/>
<path d="M124.171 23.8871C126.651 25.5671 124.171 32.0071 122.931 33.8871C120.891 36.9271 117.091 38.5271 113.531 37.5271C109.691 36.4471 108.211 32.7271 108.171 29.0471C108.131 24.6471 108.371 20.2471 108.531 15.8871C108.691 14.2871 109.491 13.2871 111.651 13.0871C113.971 12.8871 114.211 14.6071 114.171 16.4471C114.051 20.6871 113.451 25.2471 113.891 29.4471C114.051 30.7671 114.691 32.8871 116.331 32.9671C117.811 33.0871 118.451 31.4071 118.811 30.2071C119.371 28.4471 118.811 25.8471 120.131 24.4871C121.091 23.4871 122.971 23.0871 124.171 23.8871ZM114.971 5.44713C116.131 8.64713 109.011 10.5671 108.651 7.32713C108.091 4.16713 113.851 2.28713 114.971 5.44713Z" fill="url(#paint5_linear_1018_5037)"/>
<path d="M147 24.2871C149.36 25.8471 147.16 31.2471 145.88 33.0471C144.08 35.6071 141.12 36.9271 138.04 36.9671C129.12 37.0871 132.6 26.3671 132.72 21.1271C132.84 17.5671 129.76 17.1671 127.76 19.7671C125.76 22.3271 125.24 26.6871 124.84 29.8471C124.52 32.4871 124.92 37.0471 121.24 37.3271C117.52 37.5671 118.88 33.0871 118.96 32.4471C119.56 27.8071 119.72 22.8871 119.24 18.2071C119.04 16.0071 118.08 13.7271 120.84 12.7271C123.48 11.7671 124.32 13.5671 124.72 15.7671C127.64 13.2071 132.48 11.9271 135.88 14.3671C139.36 16.9271 138.44 21.3671 137.92 25.0071C137.68 26.8471 137.04 29.2871 137.68 31.0471C138.28 32.6871 140.04 32.1671 141 31.0071C142.4 29.3271 141.56 27.0871 142.56 25.4071C143.4 24.0071 145.64 23.3671 147 24.2871Z" fill="url(#paint6_linear_1018_5037)"/>
<defs>
<linearGradient id="paint0_linear_1018_5037" x1="74.7699" y1="-8.74039e-08" x2="76.9583" y2="38.7617" gradientUnits="userSpaceOnUse">
<stop stop-color="#2474C0"/>
<stop offset="1" stop-color="#033B8F"/>
</linearGradient>
<linearGradient id="paint1_linear_1018_5037" x1="74.7699" y1="-8.74039e-08" x2="76.9583" y2="38.7617" gradientUnits="userSpaceOnUse">
<stop stop-color="#2474C0"/>
<stop offset="1" stop-color="#033B8F"/>
</linearGradient>
<linearGradient id="paint2_linear_1018_5037" x1="74.7699" y1="-8.74039e-08" x2="76.9583" y2="38.7617" gradientUnits="userSpaceOnUse">
<stop stop-color="#2474C0"/>
<stop offset="1" stop-color="#033B8F"/>
</linearGradient>
<linearGradient id="paint3_linear_1018_5037" x1="74.7699" y1="-8.74039e-08" x2="76.9583" y2="38.7617" gradientUnits="userSpaceOnUse">
<stop stop-color="#2474C0"/>
<stop offset="1" stop-color="#033B8F"/>
</linearGradient>
<linearGradient id="paint4_linear_1018_5037" x1="74.7699" y1="-8.74039e-08" x2="76.9583" y2="38.7617" gradientUnits="userSpaceOnUse">
<stop stop-color="#2474C0"/>
<stop offset="1" stop-color="#033B8F"/>
</linearGradient>
<linearGradient id="paint5_linear_1018_5037" x1="74.7699" y1="-8.74039e-08" x2="76.9583" y2="38.7617" gradientUnits="userSpaceOnUse">
<stop stop-color="#2474C0"/>
<stop offset="1" stop-color="#033B8F"/>
</linearGradient>
<linearGradient id="paint6_linear_1018_5037" x1="74.7699" y1="-8.74039e-08" x2="76.9583" y2="38.7617" gradientUnits="userSpaceOnUse">
<stop stop-color="#2474C0"/>
<stop offset="1" stop-color="#033B8F"/>
</linearGradient>
</defs>
</svg>
