<svg width="203" height="58" viewBox="0 0 203 58" fill="none" xmlns="http://www.w3.org/2000/svg">
<path d="M28.6075 8.73615C28.6075 12.686 25.4055 15.888 21.4557 15.888C17.5058 15.888 14.3038 12.686 14.3038 8.73615C14.3038 4.78629 17.5058 1.5843 21.4557 1.5843C25.4055 1.5843 28.6075 4.78629 28.6075 8.73615Z" fill="url(#paint0_linear_1018_5081)"/>
<path d="M8.34383 20.2636C9.49067 18.5683 10.6997 21.4556 13.1117 21.4556C16.6877 21.4556 19.8142 20.0794 22.7062 20.0794C25.9972 20.0794 28.8456 20.9061 31.3075 22.4728C33.7824 24.0477 35.7252 26.2472 37.1415 29.1294C38.5675 32.0314 39.3105 35.4122 39.3105 39.3015C39.3105 43.1908 38.5774 46.5764 37.1415 49.4735C35.7352 52.3107 33.8007 54.5345 31.3075 56.1301C28.8144 57.7258 25.9233 58 22.6822 58C20.0894 58 21.0706 58 17.5497 58C15.4248 58 12.6838 58 11.3906 58C9.79261 58 8.89667 58 7.29865 58C5.34056 58 2.89764 53.8446 3.11798 51.899C4.9479 35.7404 -3.67812 21.7216 1.91348 4.14821C3.91276 -2.13446 9.33512 -0.310228 8.19565 3.25064C2.81048 20.0795 20.1408 26.9703 11.4871 26.3621C11.0173 26.329 8.07994 20.6537 8.34383 20.2636ZM28.9889 39.3015C28.9889 36.1601 28.1395 33.6649 26.5207 31.7472C24.8981 29.8251 22.8309 28.8303 20.238 28.8303C18.6424 28.8303 17.1757 29.2609 15.8252 30.1018C14.5329 30.9064 13.4816 32.0714 12.6838 33.6171C11.886 35.1628 11.4871 37.0576 11.4871 39.3015C11.4871 41.5453 11.886 43.4401 12.6838 44.9858C13.4816 46.5316 14.5103 47.7572 15.8252 48.5759C17.1536 49.4031 18.6424 49.7726 20.238 49.7726C22.8309 49.7726 24.9229 48.8233 26.5207 46.9305C28.1639 44.9839 28.9889 42.4428 28.9889 39.3015Z" fill="url(#paint1_linear_1018_5081)"/>
<path d="M87.8325 34.6034C88.7125 36.9234 84.6725 40.1634 82.9925 40.9634C81.4325 41.7634 79.6325 42.0434 77.8725 41.9234C76.3925 41.8434 75.4725 40.9634 74.3925 42.6034C71.7125 46.6434 67.0725 48.8034 62.2325 47.6434C60.6325 47.2034 60.0725 46.2834 58.7525 47.2834C56.5525 48.8434 54.2325 47.5634 54.3125 45.0434C54.4725 41.5634 54.8325 38.1234 54.9925 34.6834C55.2725 28.3234 55.7125 18.5234 55.3925 13.2834C55.1925 10.2434 60.7525 8.56337 60.9525 11.7634C61.2725 16.4434 60.9925 20.8434 60.9125 25.5634C66.9925 20.8834 75.7525 22.6834 77.3925 30.7634C77.7925 32.7234 77.3125 36.1234 78.3125 37.0034C78.8725 37.5234 80.1125 37.2034 80.6725 36.9234C81.9525 36.2834 82.3525 34.8434 83.3925 34.0834C84.5925 33.1634 87.1925 32.8034 87.8325 34.6034ZM60.4325 38.7234C60.8105 44.0362 71.7724 43.3434 71.8325 35.1234C72.1925 31.8034 70.3525 26.3634 65.9525 27.9634C61.5525 29.5634 60.7125 34.6034 60.4325 38.7234Z" fill="url(#paint2_linear_1018_5081)"/>
<path d="M109.703 34.3234C112.063 35.8834 109.863 41.2834 108.583 43.0834C106.783 45.6434 103.823 46.9634 100.743 47.0034C91.8229 47.1234 95.3029 36.4034 95.4229 31.1634C95.5429 27.6034 92.4629 27.2034 90.4629 29.8034C88.4629 32.3634 87.9428 36.7234 87.5428 39.8834C87.2228 42.5234 87.6228 47.0834 83.9428 47.3634C80.2228 47.6034 81.5828 43.1234 81.6628 42.4834C82.2628 37.8434 82.4228 32.9234 81.9428 28.2434C81.7428 26.0434 80.7828 23.7634 83.5428 22.7634C86.1828 21.8034 87.0229 23.6034 87.4229 25.8034C90.3429 23.2434 95.1828 21.9634 98.5828 24.4034C102.063 26.9634 101.143 31.4034 100.623 35.0434C100.383 36.8834 99.7429 39.3234 100.383 41.0834C100.983 42.7234 102.743 42.2034 103.703 41.0434C105.103 39.3634 104.263 37.1234 105.263 35.4434C106.103 34.0434 108.343 33.4034 109.703 34.3234Z" fill="url(#paint3_linear_1018_5081)"/>
<path d="M131.582 33.2034C133.982 34.8034 131.382 39.1634 130.102 40.7234C128.262 42.9234 125.782 44.4834 123.142 45.4834C117.382 47.6434 109.662 46.7634 106.342 41.0034C103.302 35.8034 104.702 27.8434 109.542 24.2034C115.022 20.0834 125.662 23.0434 122.822 29.9634C122.262 31.3234 120.222 32.0834 118.862 31.6434C116.542 30.8834 118.382 28.6434 116.982 27.4434C115.262 25.8834 112.662 27.5234 111.742 29.0034C110.462 31.1234 110.182 34.0834 110.782 36.4434C112.222 42.3634 119.422 42.9634 123.822 39.9234C125.782 38.5634 126.142 37.3234 126.782 35.2434C127.382 33.3634 129.742 32.0034 131.582 33.2034Z" fill="url(#paint4_linear_1018_5081)"/>
<path d="M153.613 33.2034C156.013 34.8034 153.413 39.1634 152.133 40.7234C150.293 42.9234 147.813 44.4834 145.173 45.4834C139.413 47.6434 131.693 46.7634 128.373 41.0034C125.333 35.8034 126.733 27.8434 131.573 24.2034C137.053 20.0834 147.693 23.0434 144.853 29.9634C144.293 31.3234 142.253 32.0834 140.893 31.6434C138.573 30.8834 140.413 28.6434 139.013 27.4434C137.293 25.8834 134.693 27.5234 133.773 29.0034C132.493 31.1234 132.213 34.0834 132.813 36.4434C134.253 42.3634 141.453 42.9634 145.853 39.9234C147.813 38.5634 148.173 37.3234 148.813 35.2434C149.413 33.3634 151.773 32.0034 153.613 33.2034Z" fill="url(#paint5_linear_1018_5081)"/>
<path d="M160.195 43.9234C162.195 47.5634 156.045 49.2608 154.811 46.7634C152.695 42.4834 158.695 40.4705 160.195 43.9234Z" fill="url(#paint6_linear_1018_5081)"/>
<path d="M178.482 33.9234C180.962 35.6034 178.482 42.0434 177.242 43.9234C175.202 46.9634 171.402 48.5634 167.842 47.5634C164.002 46.4834 162.522 42.7634 162.482 39.0834C162.442 34.6834 162.682 30.2834 162.842 25.9234C163.002 24.3234 163.802 23.3234 165.962 23.1234C168.282 22.9234 168.522 24.6434 168.482 26.4834C168.362 30.7234 167.762 35.2834 168.202 39.4834C168.362 40.8034 169.002 42.9234 170.642 43.0034C172.122 43.1234 172.762 41.4434 173.122 40.2434C173.682 38.4834 173.122 35.8834 174.442 34.5234C175.402 33.5234 177.282 33.1234 178.482 33.9234ZM169.282 15.4834C170.442 18.6834 163.322 20.6034 162.962 17.3634C162.402 14.2034 168.162 12.3234 169.282 15.4834Z" fill="url(#paint7_linear_1018_5081)"/>
<path d="M201.311 34.3234C203.671 35.8834 201.471 41.2834 200.191 43.0834C198.391 45.6434 195.431 46.9634 192.351 47.0034C183.431 47.1234 186.911 36.4034 187.031 31.1634C187.151 27.6034 184.071 27.2034 182.071 29.8034C180.071 32.3634 179.551 36.7234 179.151 39.8834C178.831 42.5234 179.231 47.0834 175.551 47.3634C171.831 47.6034 173.191 43.1234 173.271 42.4834C173.871 37.8434 174.031 32.9234 173.551 28.2434C173.351 26.0434 172.391 23.7634 175.151 22.7634C177.791 21.8034 178.631 23.6034 179.031 25.8034C181.951 23.2434 186.791 21.9634 190.191 24.4034C193.671 26.9634 192.751 31.4034 192.231 35.0434C191.991 36.8834 191.351 39.3234 191.991 41.0834C192.591 42.7234 194.351 42.2034 195.311 41.0434C196.711 39.3634 195.871 37.1234 196.871 35.4434C197.711 34.0434 199.951 33.4034 201.311 34.3234Z" fill="url(#paint8_linear_1018_5081)"/>
<defs>
<linearGradient id="paint0_linear_1018_5081" x1="101.177" y1="0" x2="101.177" y2="58" gradientUnits="userSpaceOnUse">
<stop stop-color="#2788CE"/>
<stop offset="1" stop-color="#0054A5"/>
</linearGradient>
<linearGradient id="paint1_linear_1018_5081" x1="101.177" y1="0" x2="101.177" y2="58" gradientUnits="userSpaceOnUse">
<stop stop-color="#2788CE"/>
<stop offset="1" stop-color="#0054A5"/>
</linearGradient>
<linearGradient id="paint2_linear_1018_5081" x1="101.177" y1="0" x2="101.177" y2="58" gradientUnits="userSpaceOnUse">
<stop stop-color="#2788CE"/>
<stop offset="1" stop-color="#0054A5"/>
</linearGradient>
<linearGradient id="paint3_linear_1018_5081" x1="101.177" y1="0" x2="101.177" y2="58" gradientUnits="userSpaceOnUse">
<stop stop-color="#2788CE"/>
<stop offset="1" stop-color="#0054A5"/>
</linearGradient>
<linearGradient id="paint4_linear_1018_5081" x1="101.177" y1="0" x2="101.177" y2="58" gradientUnits="userSpaceOnUse">
<stop stop-color="#2788CE"/>
<stop offset="1" stop-color="#0054A5"/>
</linearGradient>
<linearGradient id="paint5_linear_1018_5081" x1="101.177" y1="0" x2="101.177" y2="58" gradientUnits="userSpaceOnUse">
<stop stop-color="#2788CE"/>
<stop offset="1" stop-color="#0054A5"/>
</linearGradient>
<linearGradient id="paint6_linear_1018_5081" x1="101.177" y1="0" x2="101.177" y2="58" gradientUnits="userSpaceOnUse">
<stop stop-color="#2788CE"/>
<stop offset="1" stop-color="#0054A5"/>
</linearGradient>
<linearGradient id="paint7_linear_1018_5081" x1="101.177" y1="0" x2="101.177" y2="58" gradientUnits="userSpaceOnUse">
<stop stop-color="#2788CE"/>
<stop offset="1" stop-color="#0054A5"/>
</linearGradient>
<linearGradient id="paint8_linear_1018_5081" x1="101.177" y1="0" x2="101.177" y2="58" gradientUnits="userSpaceOnUse">
<stop stop-color="#2788CE"/>
<stop offset="1" stop-color="#0054A5"/>
</linearGradient>
</defs>
</svg>
