<svg width="10" height="14" viewBox="0 0 10 14" fill="none" xmlns="http://www.w3.org/2000/svg">
<path d="M8.12419 5.04906H3.12549V3.74913C3.12457 3.36318 3.2338 2.98562 3.43932 2.66428C3.64484 2.34294 3.93741 2.09227 4.27999 1.94403C4.62256 1.79578 4.99973 1.75662 5.36371 1.83151C5.7277 1.9064 6.06213 2.09196 6.32466 2.36471C6.5591 2.6147 6.72705 2.92379 6.81203 3.26166C6.83254 3.34445 6.86853 3.42223 6.91794 3.49056C6.96736 3.55888 7.02922 3.61642 7.10001 3.65987C7.17079 3.70333 7.24911 3.73186 7.3305 3.74382C7.41188 3.75579 7.49474 3.75097 7.57433 3.72963C7.65393 3.7083 7.7287 3.67086 7.79438 3.61946C7.86007 3.56806 7.91538 3.50371 7.95715 3.43008C7.99893 3.35644 8.02635 3.27497 8.03786 3.19032C8.04937 3.10566 8.04473 3.01947 8.02422 2.93668C7.88159 2.37445 7.5993 1.86113 7.20568 1.44826C6.7684 0.994823 6.21177 0.686331 5.60607 0.561738C5.00036 0.437144 4.37275 0.502037 3.80247 0.748221C3.2322 0.994405 2.74484 1.41084 2.40193 1.94495C2.05902 2.47905 1.87594 3.10687 1.87581 3.74913V5.04906C1.37866 5.04906 0.665255 5.00905 0.313716 5.37473C-0.0378239 5.7404 0.00129651 6.48181 0.00129651 6.99895V11.5487C0.00129651 12.0658 -0.0378239 12.8086 0.313716 13.1743C0.665255 13.54 1.37866 13.4986 1.87581 13.4986H8.12419C8.62134 13.4986 9.33475 13.54 9.68629 13.1743C10.0378 12.8086 9.9987 12.0658 9.9987 11.5487V6.99895C9.9987 6.48181 10.0378 5.7404 9.68629 5.37473C9.33475 5.00905 8.62134 5.04906 8.12419 5.04906ZM8.74903 11.5487C8.74903 11.7211 8.74903 12.1994 8.74903 12.1994C8.43661 12.1994 8.28991 12.1987 8.12419 12.1987H1.87581C1.71009 12.1987 1.25097 12.1987 1.25097 12.1987C1.25097 11.8737 1.25097 11.7211 1.25097 11.5487V6.99895C1.25097 6.82657 1.25097 6.67397 1.25097 6.34904C1.25097 6.34904 1.71009 6.34899 1.87581 6.34899H8.12419C8.28991 6.34899 8.74903 6.34904 8.74903 6.34904C8.74903 6.67402 8.74903 6.82657 8.74903 6.99895V11.5487Z" fill="#64748B"/>
<path d="M6.15385 9.41429C6.15385 10.0297 5.63725 10.5286 5 10.5286C4.36275 10.5286 3.84615 10.0297 3.84615 9.41429C3.84615 8.79888 4.36275 8.3 5 8.3C5.63725 8.3 6.15385 8.79888 6.15385 9.41429Z" fill="#64748B"/>
</svg>
